<?xml version="1.0" standalone="no"?>
<!DOCTYPE svg PUBLIC "-//W3C//DTD SVG 20010904//EN"
 "http://www.w3.org/TR/2001/REC-SVG-20010904/DTD/svg10.dtd">
<svg version="1.0" xmlns="http://www.w3.org/2000/svg"
 width="16.000000pt" height="16.000000pt" viewBox="0 0 16.000000 16.000000"
 preserveAspectRatio="xMidYMid meet">
<metadata>
Created by potrace 1.11, written by Peter Selinger 2001-2013
</metadata>
<g transform="translate(0.000000,16.000000) scale(0.014679,-0.014679)"
fill="#000000" stroke="none">
<path d="M22 708 l3 -382 105 -63 c58 -35 108 -63 112 -63 3 0 20 24 36 53 38
68 109 130 186 165 153 69 202 98 224 131 21 33 22 41 22 287 l0 254 -345 0
-345 0 2 -382z m389 302 c15 -8 19 -22 19 -61 0 -43 -3 -51 -25 -61 -37 -16
-55 4 -55 61 0 63 19 83 61 61z m-313 -22 l11 -23 0 23 c1 13 7 22 16 22 11 0
15 -13 16 -52 l1 -53 11 50 c9 39 17 51 33 53 18 3 23 -4 28 -35 4 -21 10 -48
13 -60 4 -16 1 -23 -10 -23 -8 0 -17 6 -20 13 -4 10 -7 10 -18 0 -19 -18 -79
-17 -79 1 0 8 -4 17 -9 20 -5 4 -7 -3 -4 -14 4 -15 0 -20 -13 -20 -17 0 -19 7
-16 60 4 64 20 79 40 38z m242 -38 c0 -53 -2 -60 -20 -60 -17 0 -20 7 -20 51
0 66 -24 62 -28 -4 -2 -33 -7 -47 -18 -47 -10 0 -14 13 -14 50 0 28 -4 50 -10
50 -5 0 -10 5 -10 10 0 6 27 10 60 10 l60 0 0 -60z m140 38 l9 -23 0 23 c1 13
7 22 16 22 11 0 15 -14 16 -57 1 -32 3 -49 6 -38 19 82 25 95 42 95 14 0 22
-12 30 -44 6 -25 11 -52 11 -60 0 -19 -26 -21 -34 -3 -5 10 -7 10 -12 0 -3 -7
-23 -13 -45 -13 -30 0 -39 4 -40 18 -1 16 -2 16 -6 0 -2 -10 -11 -18 -19 -18
-11 0 -14 15 -14 60 0 47 3 60 15 60 9 0 20 -10 25 -22z m170 -28 c0 -43 3
-50 20 -50 11 0 20 -4 20 -10 0 -5 -16 -10 -35 -10 l-35 0 0 60 c0 47 3 60 15
60 11 0 15 -12 15 -50z m-170 -125 c0 -33 2 -35 35 -35 35 0 35 0 35 -45 0
-45 0 -45 -35 -45 -33 0 -35 -2 -35 -35 0 -35 0 -35 -45 -35 -45 0 -45 0 -45
35 0 33 -2 35 -35 35 -35 0 -35 0 -35 45 0 45 0 45 35 45 33 0 35 2 35 35 0
35 0 35 45 35 45 0 45 0 45 -35z m-360 -19 c0 -2 3 -12 7 -22 5 -14 2 -16 -23
-10 l-29 7 28 -23 c21 -17 28 -31 25 -48 -2 -21 -8 -25 -38 -25 -29 0 -36 4
-38 23 -2 15 2 22 12 22 9 0 16 -4 16 -10 0 -5 6 -10 12 -10 7 0 0 11 -15 25
-29 28 -34 44 -15 63 11 11 58 17 58 8z m51 -18 l0 -23 11 23 c13 27 44 31 32
5 -9 -22 -9 -60 1 -90 5 -17 3 -23 -7 -23 -8 0 -20 10 -26 23 l-11 22 0 -22
c-1 -14 -7 -23 -16 -23 -12 0 -15 14 -15 65 0 51 3 65 15 65 9 0 15 -9 16 -22z
m89 -43 c0 -51 -3 -65 -15 -65 -12 0 -15 14 -15 65 0 51 3 65 15 65 12 0 15
-14 15 -65z m174 -138 c24 -17 19 -105 -6 -121 -30 -19 -53 4 -56 58 -4 67 21
93 62 63z m-295 -14 c10 -17 10 -17 11 0 0 10 8 17 20 17 19 0 24 -12 43 -95
3 -11 5 1 6 28 0 26 -3 47 -9 47 -5 0 -10 5 -10 10 0 7 29 10 78 8 l77 -3 5
-57 c5 -51 3 -58 -12 -58 -12 0 -18 8 -19 23 l-2 22 -4 -22 c-3 -15 -12 -23
-24 -23 -16 0 -19 7 -19 51 0 66 -24 62 -28 -4 -3 -46 -4 -47 -37 -47 -18 0
-35 6 -37 12 -3 9 -9 8 -22 -5 -25 -25 -29 -21 -23 17 5 34 5 35 -19 24 -13
-6 -24 -19 -24 -30 0 -10 -7 -18 -15 -18 -12 0 -15 13 -15 60 l0 60 35 0 c22
0 38 -6 44 -17z m351 -33 c0 -43 3 -50 20 -50 11 0 20 -4 20 -10 0 -5 -16 -10
-35 -10 l-35 0 0 60 c0 47 3 60 15 60 11 0 15 -12 15 -50z"/>
<path d="M380 950 c0 -25 4 -39 10 -35 6 3 10 19 10 35 0 16 -4 32 -10 35 -6
4 -10 -10 -10 -35z"/>
<path d="M182 950 c0 -14 2 -19 5 -12 2 6 2 18 0 25 -3 6 -5 1 -5 -13z"/>
<path d="M400 560 c0 -22 5 -40 10 -40 6 0 10 18 10 40 0 22 -4 40 -10 40 -5
0 -10 -18 -10 -40z"/>
<path d="M90 584 c0 -8 5 -12 10 -9 6 4 8 11 5 16 -9 14 -15 11 -15 -7z"/>
<path d="M321 584 c0 -11 3 -14 6 -6 3 7 2 16 -1 19 -3 4 -6 -2 -5 -13z"/>
<path d="M171 554 c0 -11 3 -14 6 -6 3 7 2 16 -1 19 -3 4 -6 -2 -5 -13z"/>
<path d="M800 825 c0 -295 -3 -313 -62 -360 -18 -14 -76 -44 -127 -66 -117
-49 -196 -102 -243 -164 -52 -68 -53 -80 -10 -107 22 -13 37 -18 39 -11 9 26
73 106 103 128 18 13 85 47 150 75 132 58 180 93 213 153 21 40 22 55 25 330
l3 287 -45 0 -46 0 0 -265z"/>
<path d="M970 783 c0 -278 -2 -312 -19 -349 -27 -60 -86 -104 -211 -158 -62
-27 -131 -63 -154 -80 -36 -28 -106 -117 -106 -135 0 -4 17 -17 39 -29 l39
-22 11 29 c14 33 73 91 116 114 17 9 77 38 135 65 122 56 171 95 208 166 l27
51 3 328 3 327 -45 0 -46 0 0 -307z"/>
</g>
</svg>
